<?xml version="1.0" encoding="UTF-8" standalone="no"?>
<!DOCTYPE svg PUBLIC "-//W3C//DTD SVG 1.1//EN"
 "http://www.w3.org/Graphics/SVG/1.1/DTD/svg11.dtd">
<!-- Generated by graphviz version 13.1.1 (20250719.2154)
 -->
<!-- Title: g1 Pages: 1 -->
<svg width="170pt" height="292pt"
 viewBox="0.00 0.00 170.00 292.00" xmlns="http://www.w3.org/2000/svg" xmlns:xlink="http://www.w3.org/1999/xlink">
<g id="graph0" class="graph" transform="scale(1 1) rotate(0) translate(4 288.05)">
<title>g1</title>
<polygon fill="none" stroke="none" points="-4,4 -4,-288.05 165.75,-288.05 165.75,4 -4,4"/>
<!-- start -->
<g id="node1" class="node">
<title>start</title>
<ellipse fill="white" stroke="green" cx="78.5" cy="-250.03" rx="34.03" ry="34.03"/>
<text xml:space="preserve" text-anchor="middle" x="78.5" y="-243.85" font-family="Consolas" font-size="14.00" fill="#427934">start</text>
</g>
<!-- expr -->
<g id="node2" class="node">
<title>expr</title>
<path fill="#f0f0f0" stroke="none" d="M45.5,-180C45.5,-180 15.5,-180 15.5,-180 9.5,-180 3.5,-174 3.5,-168 3.5,-168 3.5,-156 3.5,-156 3.5,-150 9.5,-144 15.5,-144 15.5,-144 45.5,-144 45.5,-144 51.5,-144 57.5,-150 57.5,-156 57.5,-156 57.5,-168 57.5,-168 57.5,-174 51.5,-180 45.5,-180"/>
<text xml:space="preserve" text-anchor="middle" x="30.5" y="-155.82" font-family="Consolas" font-size="14.00">expr</text>
</g>
<!-- start&#45;&gt;expr -->
<g id="edge1" class="edge">
<title>start&#45;&gt;expr</title>
<path fill="none" stroke="#666666" d="M62.25,-219.9C56.86,-210.24 50.88,-199.52 45.58,-190.02"/>
<polygon fill="#666666" stroke="#666666" points="40.75,-181.36 49.55,-187.9 42.59,-184.67 45.62,-190.1 45.62,-190.1 45.62,-190.1 42.59,-184.67 41.69,-192.29 40.75,-181.36"/>
</g>
<!-- NEWLINE -->
<g id="node3" class="node">
<title>NEWLINE</title>
<path fill="#fafafa" stroke="none" d="M149.75,-180C149.75,-180 105.25,-180 105.25,-180 99.25,-180 93.25,-174 93.25,-168 93.25,-168 93.25,-156 93.25,-156 93.25,-150 99.25,-144 105.25,-144 105.25,-144 149.75,-144 149.75,-144 155.75,-144 161.75,-150 161.75,-156 161.75,-156 161.75,-168 161.75,-168 161.75,-174 155.75,-180 149.75,-180"/>
<text xml:space="preserve" text-anchor="middle" x="127.5" y="-155.82" font-family="Consolas" font-size="14.00" fill="#777777">NEWLINE</text>
</g>
<!-- start&#45;&gt;NEWLINE -->
<g id="edge2" class="edge">
<title>start&#45;&gt;NEWLINE</title>
<path fill="none" stroke="#666666" d="M95.09,-219.9C100.59,-210.24 106.7,-199.52 112.11,-190.02"/>
<polygon fill="#666666" stroke="#666666" points="117.04,-181.36 116,-192.27 115.17,-184.64 112.09,-190.05 112.09,-190.05 112.09,-190.05 115.17,-184.64 108.18,-187.82 117.04,-181.36"/>
</g>
<!-- expr&#45;&gt;expr -->
<g id="edge4" class="edge">
<title>expr&#45;&gt;expr</title>
<path fill="none" stroke="#666666" d="M57.74,-175.49C67.52,-175.78 75.5,-171.28 75.5,-162 75.5,-156.63 72.83,-152.87 68.69,-150.7"/>
<polygon fill="#666666" stroke="#666666" points="58.94,-148.75 69.62,-146.3 62.64,-149.49 68.74,-150.71 68.74,-150.71 68.74,-150.71 62.64,-149.49 67.86,-155.12 58.94,-148.75"/>
</g>
<!-- expr2 -->
<g id="node4" class="node">
<title>expr2</title>
<path fill="#f0f0f0" stroke="none" d="M45.5,-108C45.5,-108 15.5,-108 15.5,-108 9.5,-108 3.5,-102 3.5,-96 3.5,-96 3.5,-84 3.5,-84 3.5,-78 9.5,-72 15.5,-72 15.5,-72 45.5,-72 45.5,-72 51.5,-72 57.5,-78 57.5,-84 57.5,-84 57.5,-96 57.5,-96 57.5,-102 51.5,-108 45.5,-108"/>
<text xml:space="preserve" text-anchor="middle" x="30.5" y="-83.83" font-family="Consolas" font-size="14.00">expr2</text>
</g>
<!-- expr&#45;&gt;expr2 -->
<g id="edge3" class="edge">
<title>expr&#45;&gt;expr2</title>
<path fill="none" stroke="#666666" d="M30.5,-143.7C30.5,-136.32 30.5,-127.52 30.5,-119.25"/>
<polygon fill="#666666" stroke="#666666" points="30.5,-109.32 35,-119.32 30.5,-113.1 30.5,-119.32 30.5,-119.32 30.5,-119.32 30.5,-113.1 26,-119.32 30.5,-109.32"/>
</g>
<!-- expr2&#45;&gt;expr2 -->
<g id="edge5" class="edge">
<title>expr2&#45;&gt;expr2</title>
<path fill="none" stroke="#666666" d="M57.74,-103.49C67.52,-103.78 75.5,-99.28 75.5,-90 75.5,-84.63 72.83,-80.87 68.69,-78.7"/>
<polygon fill="#666666" stroke="#666666" points="58.94,-76.75 69.62,-74.3 62.64,-77.49 68.74,-78.71 68.74,-78.71 68.74,-78.71 62.64,-77.49 67.86,-83.12 58.94,-76.75"/>
</g>
<!-- NUMBER -->
<g id="node5" class="node">
<title>NUMBER</title>
<path fill="#fafafa" stroke="none" d="M49,-36C49,-36 12,-36 12,-36 6,-36 0,-30 0,-24 0,-24 0,-12 0,-12 0,-6 6,0 12,0 12,0 49,0 49,0 55,0 61,-6 61,-12 61,-12 61,-24 61,-24 61,-30 55,-36 49,-36"/>
<text xml:space="preserve" text-anchor="middle" x="30.5" y="-11.82" font-family="Consolas" font-size="14.00" fill="#777777">NUMBER</text>
</g>
<!-- expr2&#45;&gt;NUMBER -->
<g id="edge6" class="edge">
<title>expr2&#45;&gt;NUMBER</title>
<path fill="none" stroke="#666666" d="M30.5,-71.7C30.5,-64.32 30.5,-55.52 30.5,-47.25"/>
<polygon fill="#666666" stroke="#666666" points="30.5,-37.32 35,-47.32 30.5,-41.1 30.5,-47.32 30.5,-47.32 30.5,-47.32 30.5,-41.1 26,-47.32 30.5,-37.32"/>
</g>
</g>
</svg>
