<?xml version="1.0" encoding="UTF-8" standalone="no"?>
<!DOCTYPE svg PUBLIC "-//W3C//DTD SVG 1.1//EN"
 "http://www.w3.org/Graphics/SVG/1.1/DTD/svg11.dtd">
<!-- Generated by graphviz version 13.1.1 (20250719.2154)
 -->
<!-- Pages: 1 -->
<svg width="223pt" height="332pt"
 viewBox="0.00 0.00 223.00 332.00" xmlns="http://www.w3.org/2000/svg" xmlns:xlink="http://www.w3.org/1999/xlink">
<g id="graph0" class="graph" transform="scale(1 1) rotate(0) translate(4 328)">
<polygon fill="none" stroke="none" points="-4,4 -4,-328 219,-328 219,4 -4,4"/>
<!-- s1 -->
<g id="node1" class="node">
<title>s1</title>
<ellipse fill="white" stroke="#777777" cx="156" cy="-306" rx="18" ry="18"/>
<text xml:space="preserve" text-anchor="middle" x="156" y="-299.82" font-family="Consolas" font-size="14.00">&#45;</text>
</g>
<!-- s2 -->
<g id="node2" class="node">
<title>s2</title>
<ellipse fill="white" stroke="#777777" cx="125" cy="-234" rx="18" ry="18"/>
<text xml:space="preserve" text-anchor="middle" x="125" y="-227.82" font-family="Consolas" font-size="14.00">+</text>
</g>
<!-- s1&#45;&gt;s2 -->
<g id="edge1" class="edge">
<title>s1&#45;&gt;s2</title>
<path fill="none" stroke="#666666" d="M148.97,-289.12C145.28,-280.79 140.67,-270.39 136.48,-260.93"/>
<polygon fill="#666666" stroke="#666666" points="132.5,-251.94 140.66,-259.26 134.03,-255.39 136.55,-261.08 136.55,-261.08 136.55,-261.08 134.03,-255.39 132.43,-262.9 132.5,-251.94"/>
</g>
<!-- a -->
<g id="node3" class="node">
<title>a</title>
<path fill="#d0d0d0" stroke="none" d="M203,-252C203,-252 173,-252 173,-252 167,-252 161,-246 161,-240 161,-240 161,-228 161,-228 161,-222 167,-216 173,-216 173,-216 203,-216 203,-216 209,-216 215,-222 215,-228 215,-228 215,-240 215,-240 215,-246 209,-252 203,-252"/>
<text xml:space="preserve" text-anchor="middle" x="188" y="-227.82" font-family="Consolas" font-size="14.00">5</text>
</g>
<!-- s1&#45;&gt;a -->
<g id="edge2" class="edge">
<title>s1&#45;&gt;a</title>
<path fill="none" stroke="#666666" d="M163.26,-289.12C166.87,-281.23 171.33,-271.48 175.46,-262.43"/>
<polygon fill="#666666" stroke="#666666" points="179.59,-253.4 179.52,-264.37 178.02,-256.84 175.43,-262.5 175.43,-262.5 175.43,-262.5 178.02,-256.84 171.34,-260.62 179.59,-253.4"/>
</g>
<!-- s3 -->
<g id="node4" class="node">
<title>s3</title>
<ellipse fill="white" stroke="#777777" cx="94" cy="-162" rx="18" ry="18"/>
<text xml:space="preserve" text-anchor="middle" x="94" y="-155.82" font-family="Consolas" font-size="14.00">&#45;</text>
</g>
<!-- s2&#45;&gt;s3 -->
<g id="edge3" class="edge">
<title>s2&#45;&gt;s3</title>
<path fill="none" stroke="#666666" d="M117.97,-217.12C114.28,-208.79 109.67,-198.39 105.48,-188.93"/>
<polygon fill="#666666" stroke="#666666" points="101.5,-179.94 109.66,-187.26 103.03,-183.39 105.55,-189.08 105.55,-189.08 105.55,-189.08 103.03,-183.39 101.43,-190.9 101.5,-179.94"/>
</g>
<!-- b -->
<g id="node5" class="node">
<title>b</title>
<path fill="#d0d0d0" stroke="none" d="M172,-180C172,-180 142,-180 142,-180 136,-180 130,-174 130,-168 130,-168 130,-156 130,-156 130,-150 136,-144 142,-144 142,-144 172,-144 172,-144 178,-144 184,-150 184,-156 184,-156 184,-168 184,-168 184,-174 178,-180 172,-180"/>
<text xml:space="preserve" text-anchor="middle" x="157" y="-155.82" font-family="Consolas" font-size="14.00">4</text>
</g>
<!-- s2&#45;&gt;b -->
<g id="edge4" class="edge">
<title>s2&#45;&gt;b</title>
<path fill="none" stroke="#666666" d="M132.26,-217.12C135.87,-209.23 140.33,-199.48 144.46,-190.43"/>
<polygon fill="#666666" stroke="#666666" points="148.59,-181.4 148.52,-192.37 147.02,-184.84 144.43,-190.5 144.43,-190.5 144.43,-190.5 147.02,-184.84 140.34,-188.62 148.59,-181.4"/>
</g>
<!-- s4 -->
<g id="node6" class="node">
<title>s4</title>
<ellipse fill="white" stroke="#777777" cx="63" cy="-90" rx="18" ry="18"/>
<text xml:space="preserve" text-anchor="middle" x="63" y="-83.83" font-family="Consolas" font-size="14.00">+</text>
</g>
<!-- s3&#45;&gt;s4 -->
<g id="edge5" class="edge">
<title>s3&#45;&gt;s4</title>
<path fill="none" stroke="#666666" d="M86.97,-145.12C83.28,-136.79 78.67,-126.39 74.48,-116.93"/>
<polygon fill="#666666" stroke="#666666" points="70.5,-107.94 78.66,-115.26 72.03,-111.39 74.55,-117.08 74.55,-117.08 74.55,-117.08 72.03,-111.39 70.43,-118.9 70.5,-107.94"/>
</g>
<!-- c -->
<g id="node7" class="node">
<title>c</title>
<path fill="#d0d0d0" stroke="none" d="M141,-108C141,-108 111,-108 111,-108 105,-108 99,-102 99,-96 99,-96 99,-84 99,-84 99,-78 105,-72 111,-72 111,-72 141,-72 141,-72 147,-72 153,-78 153,-84 153,-84 153,-96 153,-96 153,-102 147,-108 141,-108"/>
<text xml:space="preserve" text-anchor="middle" x="126" y="-83.83" font-family="Consolas" font-size="14.00">3</text>
</g>
<!-- s3&#45;&gt;c -->
<g id="edge6" class="edge">
<title>s3&#45;&gt;c</title>
<path fill="none" stroke="#666666" d="M101.26,-145.12C104.87,-137.23 109.33,-127.48 113.46,-118.43"/>
<polygon fill="#666666" stroke="#666666" points="117.59,-109.4 117.52,-120.37 116.02,-112.84 113.43,-118.5 113.43,-118.5 113.43,-118.5 116.02,-112.84 109.34,-116.62 117.59,-109.4"/>
</g>
<!-- d -->
<g id="node8" class="node">
<title>d</title>
<path fill="#d0d0d0" stroke="none" d="M42,-36C42,-36 12,-36 12,-36 6,-36 0,-30 0,-24 0,-24 0,-12 0,-12 0,-6 6,0 12,0 12,0 42,0 42,0 48,0 54,-6 54,-12 54,-12 54,-24 54,-24 54,-30 48,-36 42,-36"/>
<text xml:space="preserve" text-anchor="middle" x="27" y="-11.82" font-family="Consolas" font-size="14.00">1</text>
</g>
<!-- s4&#45;&gt;d -->
<g id="edge7" class="edge">
<title>s4&#45;&gt;d</title>
<path fill="none" stroke="#666666" d="M55.01,-73.46C50.92,-65.5 45.81,-55.58 41.08,-46.38"/>
<polygon fill="#666666" stroke="#666666" points="36.54,-37.54 45.11,-44.38 38.27,-40.91 41.11,-46.44 41.11,-46.44 41.11,-46.44 38.27,-40.91 37.11,-48.5 36.54,-37.54"/>
</g>
<!-- e -->
<g id="node9" class="node">
<title>e</title>
<path fill="#d0d0d0" stroke="none" d="M114,-36C114,-36 84,-36 84,-36 78,-36 72,-30 72,-24 72,-24 72,-12 72,-12 72,-6 78,0 84,0 84,0 114,0 114,0 120,0 126,-6 126,-12 126,-12 126,-24 126,-24 126,-30 120,-36 114,-36"/>
<text xml:space="preserve" text-anchor="middle" x="99" y="-11.82" font-family="Consolas" font-size="14.00">2</text>
</g>
<!-- s4&#45;&gt;e -->
<g id="edge8" class="edge">
<title>s4&#45;&gt;e</title>
<path fill="none" stroke="#666666" d="M70.99,-73.46C75.08,-65.5 80.19,-55.58 84.92,-46.38"/>
<polygon fill="#666666" stroke="#666666" points="89.46,-37.54 88.89,-48.5 87.73,-40.91 84.89,-46.44 84.89,-46.44 84.89,-46.44 87.73,-40.91 80.89,-44.38 89.46,-37.54"/>
</g>
</g>
</svg>
